<?xml version="1.0" encoding="UTF-8"?>
<svg width="226px" height="58px" viewBox="0 0 226 58" version="1.1" xmlns="http://www.w3.org/2000/svg" xmlns:xlink="http://www.w3.org/1999/xlink">
    <!-- Generator: Sketch 46.2 (44496) - http://www.bohemiancoding.com/sketch -->
    <title>Group 4</title>
    <desc>Created with Sketch.</desc>
    <defs>
        <path d="M26.4553846,3.63076923 L33.6969231,3.63076923 L33.6969231,7.04230769 L33.6969231,7.04230769 C33.6969231,7.53936397 33.2939794,7.94230769 32.7969231,7.94230769 L26.4553846,7.94230769 L26.4553846,7.94230769 C25.9583283,7.94230769 25.5553846,7.53936397 25.5553846,7.04230769 L25.5553846,4.53076923 L25.5553846,4.53076923 C25.5553846,4.03371296 25.9583283,3.63076923 26.4553846,3.63076923 Z" id="path-1"></path>
        <rect id="path-2" x="11.4207692" y="1.70192308" width="16.17" height="8.05576923" rx="0.9"></rect>
        <rect id="path-3" x="0.0110687571" y="0.0839531978" width="12.8392234" height="11.1192308" rx="0.9"></rect>
        <rect id="path-4" x="35.0367362" y="12.3491036" width="1.87482651" height="2.60961538" rx="0.45"></rect>
    </defs>
    <g id="Page-1" stroke="none" stroke-width="1" fill="none" fill-rule="evenodd">
        <g id="Desktop-HD" transform="translate(-55.000000, -41.000000)">
            <g id="Group-4" transform="translate(55.000000, 40.000000)">
                <g id="Group-3">
                    <ellipse id="Oval-2" fill="#B7D0E2" cx="28.9476923" cy="53.4403846" rx="26.2338462" ry="5.55961538"></ellipse>
                    <g id="Group-2" transform="translate(10.403077, 15.317308)">
                        <path d="M3.56192308,37.5557692 L8.65038462,37.5557692" id="Line" stroke="#404E5C" stroke-width="1.125" stroke-linecap="round"></path>
                        <path d="M27.9865385,37.5557692 L33.075,37.5557692" id="Line" stroke="#404E5C" stroke-width="1.125" stroke-linecap="round"></path>
                        <path d="M6.04961538,37.0518057 L18.2619231,17.8544815" id="Line" stroke="#404E5C" stroke-width="1.125" stroke-linecap="round"></path>
                        <path d="M30.7380774,36.9406499 L18.3184615,17.8134615" id="Line" stroke="#404E5C" stroke-width="1.125" stroke-linecap="round"></path>
                        <ellipse id="Oval" stroke="#404E5C" stroke-width="1.125" fill="#B7D0E2" cx="18.3184615" cy="17.4730769" rx="2.26153846" ry="2.26923077"></ellipse>
                        <g id="Group" transform="translate(17.808079, 10.572717) rotate(18.000000) translate(-17.808079, -10.572717) translate(0.959617, 4.956370)">
                            <g id="Rectangle-2">
                                <use fill="#B7D0E2" fill-rule="evenodd" xlink:href="#path-1"></use>
                                <path stroke="#404E5C" stroke-width="1.125" d="M33.1344231,4.19326923 L26.4553846,4.19326923 C26.2689885,4.19326923 26.1178846,4.34437313 26.1178846,4.53076923 L26.1178846,7.04230769 C26.1178846,7.2287038 26.2689885,7.37980769 26.4553846,7.37980769 L32.7969231,7.37980769 C32.9833192,7.37980769 33.1344231,7.2287038 33.1344231,7.04230769 L33.1344231,4.19326923 Z"></path>
                            </g>
                            <g id="Rectangle">
                                <use fill="#B7D0E2" fill-rule="evenodd" xlink:href="#path-2"></use>
                                <rect stroke="#404E5C" stroke-width="1.125" x="11.9832692" y="2.26442308" width="15.045" height="6.93076923" rx="0.9"></rect>
                            </g>
                            <g id="Rectangle-3">
                                <use fill="#B7D0E2" fill-rule="evenodd" xlink:href="#path-3"></use>
                                <rect stroke="#404E5C" stroke-width="1.125" x="0.573568757" y="0.646453198" width="11.7142234" height="9.99423077" rx="0.9"></rect>
                            </g>
                            <rect id="Rectangle-5" fill="#404E5C" x="3.05307692" y="0.794230769" width="1.13076923" height="9.64423077" rx="0.45"></rect>
                            <rect id="Rectangle-5" fill="#404E5C" x="18.7707692" y="2.49615385" width="1.47" height="6.46730769" rx="0.45"></rect>
                            <path d="M23.0676923,2.09903846 L23.0676923,0.170192308" id="Line" stroke="#404E5C" stroke-width="1.125" stroke-linecap="round"></path>
                        </g>
                        <path d="M34.5949032,14.8493345 L36.4238439,16.8650462 L36.4238439,16.8650462 C36.6743467,17.1411302 36.653609,17.5680131 36.3775249,17.8185159 C36.2506368,17.9336469 36.0847149,17.9962168 35.9134006,17.9935391 L33.4192561,17.9545556 L33.4192561,15.3133197 L33.4204047,15.2797958 L33.4204047,15.2797958 C33.4331703,14.9072222 33.7455494,14.6155402 34.1181229,14.6283058 C34.3003823,14.6345506 34.4723597,14.7142769 34.5949032,14.8493345 Z" id="Triangle" stroke="#404E5C" stroke-width="1.125" fill="#B7D0E2" transform="translate(35.005096, 16.312858) rotate(106.000000) translate(-35.005096, -16.312858) "></path>
                        <g id="Rectangle-4" transform="translate(35.974149, 13.653911) rotate(16.000000) translate(-35.974149, -13.653911) ">
                            <use fill="#E8E8E8" fill-rule="evenodd" xlink:href="#path-4"></use>
                            <rect stroke="#404E5C" stroke-width="1.125" x="35.5992362" y="12.9116036" width="1" height="1.48461538" rx="0.45"></rect>
                        </g>
                    </g>
                    <ellipse id="Oval-3" fill="#B7D0E2" cx="14.0780769" cy="7.09134615" rx="2.88346154" ry="2.89326923"></ellipse>
                    <ellipse id="Oval-3" fill="#B7D0E2" cx="44.835" cy="14.6932692" rx="2.88346154" ry="2.89326923"></ellipse>
                    <ellipse id="Oval-3" fill="#B7D0E2" cx="2.88346154" cy="26.1528846" rx="2.88346154" ry="2.89326923"></ellipse>
                    <path d="M31.4646401,2.17750754 C32.5720427,2.88080643 33.3874502,3.2317755 33.9108625,3.23041475 C34.521965,3.22882603 35.5279609,2.74982265 36.9288505,1.7934046 L37.0477559,1.96756841 C37.0435422,1.97044519 37.0398846,1.97406153 37.0369601,1.97824225 C36.072211,3.35740208 35.585697,4.33608594 35.577418,4.91429383 C35.5702061,5.41798163 35.9371036,6.24966655 36.6781105,7.40934859 L36.6782175,7.40928023 C36.7535277,7.52714123 36.7190334,7.68373738 36.6011724,7.75904752 C36.5179221,7.81224228 36.411338,7.81216981 36.3281601,7.75886189 C35.1552166,7.0071329 34.3276058,6.63827087 33.8453275,6.65227579 C33.3672567,6.66615854 32.5735904,7.03481895 31.4643285,7.75825702 L31.4644302,7.75841294 C31.3472489,7.83483622 31.1903013,7.8017953 31.1138781,7.68461399 C31.0602234,7.60234425 31.0589634,7.49647325 31.1106448,7.41294982 C31.7848529,6.32334821 32.1287907,5.51629757 32.1424583,4.99179791 C32.1562271,4.46341549 31.8135717,3.64130939 31.1144921,2.52547961 L31.1145845,2.52542174 C31.0403955,2.40700559 31.0762486,2.25086825 31.1946648,2.17667923 C31.2772976,2.12490887 31.3823265,2.1252311 31.4646401,2.17750754 Z" id="Rectangle-6" fill="#B7D0E2" transform="translate(33.905055, 4.974224) rotate(45.000000) translate(-33.905055, -4.974224) "></path>
                    <path d="M1.90033704,9.70158466 C2.74372644,10.2379842 3.36441517,10.5056667 3.76240324,10.504632 C4.2256583,10.5034277 4.98826816,10.1403122 6.05023282,9.41528562 L6.14029649,9.54720415 C6.13729302,9.54925469 6.13468582,9.55183233 6.13260117,9.55481222 C5.40098409,10.6006164 5.03203697,11.3427194 5.02575981,11.781121 C5.02027619,12.1641012 5.30010602,12.7972274 5.86524931,13.6804996 L5.8652385,13.6805065 C5.92174257,13.7688177 5.89595781,13.8862137 5.80764662,13.9427178 C5.7452,13.9826729 5.66520755,13.9826196 5.60281425,13.9425813 C4.70943951,13.3692945 4.07940924,13.0879752 3.71272346,13.0986235 C3.34912317,13.1091821 2.74470506,13.3904568 1.89946913,13.9424476 L1.89934575,13.9422587 C1.81166411,13.9995202 1.6941645,13.9748598 1.63690302,13.8871781 C1.59665218,13.825544 1.59571062,13.7461835 1.63448784,13.6836118 C2.14899264,12.8533963 2.41144294,12.2388171 2.42183873,11.8398741 C2.43230805,11.4381093 2.17094079,10.8123282 1.63773693,9.96253078 L1.6378812,9.96244025 C1.5822057,9.87370703 1.60900429,9.75664063 1.69773751,9.70096513 C1.75973399,9.66206555 1.83857963,9.66230666 1.90033704,9.70158466 Z" id="Rectangle-6" fill="#B7D0E2" transform="translate(3.758001, 11.826552) rotate(45.000000) translate(-3.758001, -11.826552) "></path>
                    <path d="M53.1241832,21.1612 C53.9675726,21.6975996 54.5882613,21.9652821 54.9862494,21.9642474 C55.4495045,21.9630431 56.2121143,21.5999276 57.274079,20.874901 L57.3641426,21.0068195 C57.3611392,21.0088701 57.358532,21.0114477 57.3564473,21.0144276 C56.6248302,22.0602318 56.2558831,22.8023347 56.249606,23.2407364 C56.2441223,23.6237166 56.5239522,24.2568428 57.0890955,25.140115 L57.0890847,25.1401219 C57.1455887,25.2284331 57.119804,25.3458291 57.0314928,25.4023331 C56.9690462,25.4422883 56.8890537,25.442235 56.8266604,25.4021966 C55.9332857,24.8289099 55.3032554,24.5475906 54.9365696,24.5582388 C54.5729693,24.5687975 53.9685512,24.8500722 53.1233153,25.402063 L53.1231919,25.4018741 C53.0355103,25.4591355 52.9180107,25.4344751 52.8607492,25.3467935 C52.8204983,25.2851594 52.8195568,25.2057989 52.858334,25.1432272 C53.3728388,24.3130117 53.6352891,23.6984324 53.6456849,23.2994895 C53.6561542,22.8977247 53.3947869,22.2719436 52.8615831,21.4221462 L52.8617274,21.4220556 C52.8060519,21.3333224 52.8328504,21.216256 52.9215837,21.1605805 C52.9835801,21.1216809 53.0624258,21.121922 53.1241832,21.1612 Z" id="Rectangle-6" fill="#B7D0E2" transform="translate(54.981847, 23.286168) rotate(45.000000) translate(-54.981847, -23.286168) "></path>
                </g>
                <text id="Telescope" font-family="Arvo-Bold, Arvo" font-size="30" font-weight="bold" letter-spacing="0.543999374" fill="#404E5C">
                    <tspan x="69.6" y="39.9473684">Telescope</tspan>
                </text>
            </g>
        </g>
    </g>
</svg>